<mxfile host="drawio-plugin" modified="2024-09-03T11:10:28.218Z" agent="5.0 (Macintosh; Intel Mac OS X 10_15_7) AppleWebKit/537.36 (KHTML, like Gecko) Chrome/122.0.0.0 Safari/537.36" etag="fuAubSoo088wWUrjNJIm" version="20.5.3" type="embed"><diagram id="23iRSUPoRavnBvh4doch" name="Page-1"><mxGraphModel dx="2247" dy="2019" grid="0" gridSize="10" guides="1" tooltips="1" connect="1" arrows="1" fold="1" page="0" pageScale="1" pageWidth="827" pageHeight="1169" math="0" shadow="0"><root><mxCell id="0"/><mxCell id="1" parent="0"/><mxCell id="3" value="NotificationService" style="swimlane;whiteSpace=wrap;html=1;" parent="1" vertex="1"><mxGeometry x="-225" y="-66" width="709" height="526" as="geometry"/></mxCell><mxCell id="5" value="&lt;div style=&quot;background-color:#1e1f22;color:#bcbec4&quot;&gt;&lt;pre style=&quot;font-family:'JetBrains Mono',monospace;font-size:11.3pt;&quot;&gt;&lt;span style=&quot;color:#56a8f5;&quot;&gt;displayNotification&lt;/span&gt;&lt;/pre&gt;&lt;/div&gt;" style="rounded=1;whiteSpace=wrap;html=1;" parent="3" vertex="1"><mxGeometry x="377" y="352" width="205" height="60" as="geometry"/></mxCell><mxCell id="22" value="&lt;pre style=&quot;color: rgb(188, 190, 196); font-size: 11.3pt; font-weight: 400; background-color: rgb(30, 31, 34); font-family: &amp;quot;JetBrains Mono&amp;quot;, monospace;&quot;&gt;&lt;span style=&quot;color: rgb(86, 168, 245);&quot;&gt;onForegroundEvent&lt;/span&gt;&lt;/pre&gt;" style="swimlane;whiteSpace=wrap;html=1;startSize=23;" vertex="1" parent="3"><mxGeometry x="65" y="320" width="171" height="154" as="geometry"/></mxCell><mxCell id="23" value="&lt;div style=&quot;background-color:#1e1f22;color:#bcbec4&quot;&gt;&lt;pre style=&quot;font-family:'JetBrains Mono',monospace;font-size:11.3pt;&quot;&gt;&lt;span style=&quot;color:#56a8f5;&quot;&gt;observer&lt;/span&gt;&lt;/pre&gt;&lt;/div&gt;" style="rounded=1;whiteSpace=wrap;html=1;" vertex="1" parent="22"><mxGeometry x="25.5" y="51" width="115.5" height="60" as="geometry"/></mxCell><mxCell id="29" style="edgeStyle=none;rounded=0;orthogonalLoop=1;jettySize=auto;html=1;" edge="1" parent="3" source="25" target="28"><mxGeometry relative="1" as="geometry"/></mxCell><mxCell id="35" value="&lt;div style=&quot;background-color:#1e1f22;color:#bcbec4&quot;&gt;&lt;pre style=&quot;font-family:'JetBrains Mono',monospace;font-size:11.3pt;&quot;&gt;type == EventType.&lt;span style=&quot;font-size: 11.3pt; color: rgb(199, 125, 187); font-style: italic;&quot;&gt;PRESS&lt;/span&gt; &lt;/pre&gt;&lt;/div&gt;" style="edgeLabel;html=1;align=center;verticalAlign=middle;resizable=0;points=[];" vertex="1" connectable="0" parent="29"><mxGeometry x="-0.2381" y="3" relative="1" as="geometry"><mxPoint y="-1" as="offset"/></mxGeometry></mxCell><mxCell id="25" value="&lt;div style=&quot;background-color:#1e1f22;color:#bcbec4&quot;&gt;&lt;pre style=&quot;font-family:'JetBrains Mono',monospace;font-size:11.3pt;&quot;&gt;&lt;div&gt;&lt;pre style=&quot;font-family:'JetBrains Mono',monospace;font-size:11.3pt;&quot;&gt;&lt;span style=&quot;color:#56a8f5;&quot;&gt;handleNotificationEvent&lt;/span&gt;&lt;/pre&gt;&lt;/div&gt;&lt;/pre&gt;&lt;/div&gt;" style="rounded=1;whiteSpace=wrap;html=1;" vertex="1" parent="3"><mxGeometry x="30" y="213" width="241" height="60" as="geometry"/></mxCell><mxCell id="28" value="&lt;div style=&quot;background-color:#1e1f22;color:#bcbec4&quot;&gt;&lt;pre style=&quot;font-family:'JetBrains Mono',monospace;font-size:11.3pt;&quot;&gt;&lt;pre style=&quot;font-family:'JetBrains Mono',monospace;font-size:11.3pt;&quot;&gt;&lt;div&gt;&lt;pre style=&quot;font-family:'JetBrains Mono',monospace;font-size:11.3pt;&quot;&gt;&lt;span style=&quot;color:#56a8f5;&quot;&gt;handleNotificationPress&lt;/span&gt;&lt;/pre&gt;&lt;/div&gt;&lt;/pre&gt;&lt;/pre&gt;&lt;/div&gt;" style="rounded=1;whiteSpace=wrap;html=1;" vertex="1" parent="3"><mxGeometry x="43" y="54" width="241" height="60" as="geometry"/></mxCell><mxCell id="71" style="edgeStyle=none;rounded=0;orthogonalLoop=1;jettySize=auto;html=1;" edge="1" parent="3" source="23" target="25"><mxGeometry relative="1" as="geometry"/></mxCell><mxCell id="4" value="FCMService" style="swimlane;whiteSpace=wrap;html=1;startSize=23;" parent="1" vertex="1"><mxGeometry x="545" y="148" width="349" height="200" as="geometry"/></mxCell><mxCell id="2" value="&lt;div style=&quot;background-color:#1e1f22;color:#bcbec4&quot;&gt;&lt;pre style=&quot;font-family:'JetBrains Mono',monospace;font-size:11.3pt;&quot;&gt;&lt;span style=&quot;color:#56a8f5;&quot;&gt;listenForMessagesForeground&lt;/span&gt;&lt;/pre&gt;&lt;/div&gt;" style="rounded=1;whiteSpace=wrap;html=1;" parent="4" vertex="1"><mxGeometry x="29" y="65" width="296" height="60" as="geometry"/></mxCell><mxCell id="6" value="notifee" style="swimlane;whiteSpace=wrap;html=1;startSize=23;" parent="1" vertex="1"><mxGeometry x="-203" y="542" width="605" height="153" as="geometry"/></mxCell><mxCell id="7" value="&lt;div style=&quot;background-color:#1e1f22;color:#bcbec4&quot;&gt;&lt;pre style=&quot;font-family:'JetBrains Mono',monospace;font-size:11.3pt;&quot;&gt;&lt;span style=&quot;color:#56a8f5;&quot;&gt;displayNotification&lt;/span&gt;&lt;/pre&gt;&lt;/div&gt;" style="rounded=1;whiteSpace=wrap;html=1;" parent="6" vertex="1"><mxGeometry x="363" y="57" width="205" height="60" as="geometry"/></mxCell><mxCell id="19" value="&lt;div style=&quot;background-color:#1e1f22;color:#bcbec4&quot;&gt;&lt;pre style=&quot;font-family:'JetBrains Mono',monospace;font-size:11.3pt;&quot;&gt;&lt;div&gt;&lt;pre style=&quot;font-family:'JetBrains Mono',monospace;font-size:11.3pt;&quot;&gt;&lt;span style=&quot;color:#56a8f5;&quot;&gt;onForegroundEvent&lt;/span&gt;&lt;/pre&gt;&lt;/div&gt;&lt;/pre&gt;&lt;/div&gt;" style="rounded=1;whiteSpace=wrap;html=1;" vertex="1" parent="6"><mxGeometry x="81" y="57" width="205" height="60" as="geometry"/></mxCell><mxCell id="8" style="rounded=0;orthogonalLoop=1;jettySize=auto;html=1;" parent="1" source="5" target="7" edge="1"><mxGeometry relative="1" as="geometry"/></mxCell><mxCell id="10" style="rounded=0;orthogonalLoop=1;jettySize=auto;html=1;dashed=1;" edge="1" parent="1" source="9" target="2"><mxGeometry relative="1" as="geometry"/></mxCell><mxCell id="11" value="message" style="edgeLabel;html=1;align=center;verticalAlign=middle;resizable=0;points=[];" vertex="1" connectable="0" parent="10"><mxGeometry x="-0.0846" y="5" relative="1" as="geometry"><mxPoint as="offset"/></mxGeometry></mxCell><mxCell id="9" value="FCM" style="ellipse;shape=cloud;whiteSpace=wrap;html=1;" vertex="1" parent="1"><mxGeometry x="647" y="-45" width="120" height="80" as="geometry"/></mxCell><mxCell id="12" style="edgeStyle=none;rounded=0;orthogonalLoop=1;jettySize=auto;html=1;" edge="1" parent="1" source="2" target="5"><mxGeometry relative="1" as="geometry"/></mxCell><mxCell id="13" value="DeeplinkContext" style="swimlane;whiteSpace=wrap;html=1;" vertex="1" parent="1"><mxGeometry x="-743" y="108" width="413" height="266" as="geometry"/></mxCell><mxCell id="14" value="&lt;div style=&quot;background-color:#1e1f22;color:#bcbec4&quot;&gt;&lt;pre style=&quot;font-family:'JetBrains Mono',monospace;font-size:11.3pt;&quot;&gt;&lt;span style=&quot;color:#56a8f5;&quot;&gt;useEffect&lt;/span&gt;&lt;/pre&gt;&lt;/div&gt;" style="rounded=1;whiteSpace=wrap;html=1;" vertex="1" parent="13"><mxGeometry x="210" y="156" width="120" height="60" as="geometry"/></mxCell><mxCell id="27" value="&lt;div style=&quot;background-color:#1e1f22;color:#bcbec4&quot;&gt;&lt;pre style=&quot;font-family:'JetBrains Mono',monospace;font-size:11.3pt;&quot;&gt;&lt;div&gt;&lt;pre style=&quot;font-family:'JetBrains Mono',monospace;font-size:11.3pt;&quot;&gt;&lt;span style=&quot;color:#a9b7c6;&quot;&gt;handleNotificationCallback&lt;/span&gt;&lt;/pre&gt;&lt;/div&gt;&lt;/pre&gt;&lt;/div&gt;" style="rounded=1;whiteSpace=wrap;html=1;" vertex="1" parent="13"><mxGeometry x="128" y="55" width="264" height="60" as="geometry"/></mxCell><mxCell id="16" style="edgeStyle=none;rounded=0;orthogonalLoop=1;jettySize=auto;html=1;" edge="1" parent="1" source="14" target="22"><mxGeometry relative="1" as="geometry"><mxPoint x="-164" y="187.43957503320075" as="targetPoint"/></mxGeometry></mxCell><mxCell id="24" style="edgeStyle=none;rounded=0;orthogonalLoop=1;jettySize=auto;html=1;dashed=1;" edge="1" parent="1" source="23" target="19"><mxGeometry relative="1" as="geometry"/></mxCell><mxCell id="65" value="observe" style="edgeLabel;html=1;align=center;verticalAlign=middle;resizable=0;points=[];" vertex="1" connectable="0" parent="24"><mxGeometry x="0.0597" y="3" relative="1" as="geometry"><mxPoint as="offset"/></mxGeometry></mxCell><mxCell id="30" style="edgeStyle=none;rounded=0;orthogonalLoop=1;jettySize=auto;html=1;" edge="1" parent="1" source="28" target="27"><mxGeometry relative="1" as="geometry"/></mxCell><mxCell id="32" style="edgeStyle=none;rounded=0;orthogonalLoop=1;jettySize=auto;html=1;" edge="1" parent="1" source="31" target="19"><mxGeometry relative="1" as="geometry"/></mxCell><mxCell id="33" value="TAPS" style="edgeLabel;html=1;align=center;verticalAlign=middle;resizable=0;points=[];" vertex="1" connectable="0" parent="32"><mxGeometry x="-0.1354" y="2" relative="1" as="geometry"><mxPoint as="offset"/></mxGeometry></mxCell><mxCell id="31" value="User" style="shape=umlActor;verticalLabelPosition=bottom;verticalAlign=top;html=1;outlineConnect=0;" vertex="1" parent="1"><mxGeometry x="78.5" y="733" width="30" height="60" as="geometry"/></mxCell><mxCell id="66" style="edgeStyle=none;rounded=0;orthogonalLoop=1;jettySize=auto;html=1;exitX=0;exitY=0.25;exitDx=0;exitDy=0;entryX=0.25;entryY=1;entryDx=0;entryDy=0;" edge="1" parent="1" source="19" target="23"><mxGeometry relative="1" as="geometry"><Array as="points"/></mxGeometry></mxCell><mxCell id="68" value="&lt;pre style=&quot;color: rgb(188, 190, 196); font-family: &amp;quot;JetBrains Mono&amp;quot;, monospace; font-size: 11.3pt;&quot;&gt;type, detail&lt;/pre&gt;" style="edgeLabel;html=1;align=center;verticalAlign=middle;resizable=0;points=[];" vertex="1" connectable="0" parent="66"><mxGeometry x="-0.2233" y="-3" relative="1" as="geometry"><mxPoint x="-26" y="-21" as="offset"/></mxGeometry></mxCell></root></mxGraphModel></diagram></mxfile>